<svg xmlns="http://www.w3.org/2000/svg" viewBox="0 0 100 100">
  <defs>
    <linearGradient id="bg" x1="0%" y1="0%" x2="100%" y2="100%">
      <stop offset="0%" style="stop-color:#4f46e5"/>
      <stop offset="100%" style="stop-color:#a855f7"/>
    </linearGradient>
  </defs>
  <rect width="100" height="100" rx="22" fill="url(#bg)"/>
  <!-- Connections -->
  <line x1="32" y1="30" x2="50" y2="22" stroke="white" stroke-width="1" opacity="0.55"/>
  <line x1="50" y1="22" x2="68" y2="30" stroke="white" stroke-width="1" opacity="0.55"/>
  <line x1="32" y1="30" x2="42" y2="48" stroke="white" stroke-width="1" opacity="0.45"/>
  <line x1="50" y1="22" x2="42" y2="48" stroke="white" stroke-width="1" opacity="0.45"/>
  <line x1="50" y1="22" x2="60" y2="46" stroke="white" stroke-width="1" opacity="0.45"/>
  <line x1="68" y1="30" x2="60" y2="46" stroke="white" stroke-width="1" opacity="0.45"/>
  <line x1="68" y1="30" x2="76" y2="52" stroke="white" stroke-width="1" opacity="0.4"/>
  <line x1="25" y1="50" x2="42" y2="48" stroke="white" stroke-width="1" opacity="0.4"/>
  <line x1="42" y1="48" x2="60" y2="46" stroke="white" stroke-width="1" opacity="0.5"/>
  <line x1="60" y1="46" x2="76" y2="52" stroke="white" stroke-width="1" opacity="0.4"/>
  <line x1="25" y1="50" x2="35" y2="68" stroke="white" stroke-width="1" opacity="0.35"/>
  <line x1="42" y1="48" x2="35" y2="68" stroke="white" stroke-width="1" opacity="0.35"/>
  <line x1="42" y1="48" x2="52" y2="72" stroke="white" stroke-width="1" opacity="0.4"/>
  <line x1="60" y1="46" x2="52" y2="72" stroke="white" stroke-width="1" opacity="0.4"/>
  <line x1="60" y1="46" x2="68" y2="66" stroke="white" stroke-width="1" opacity="0.35"/>
  <line x1="76" y1="52" x2="68" y2="66" stroke="white" stroke-width="1" opacity="0.35"/>
  <line x1="35" y1="68" x2="52" y2="72" stroke="white" stroke-width="1" opacity="0.35"/>
  <line x1="52" y1="72" x2="68" y2="66" stroke="white" stroke-width="1" opacity="0.35"/>
  <!-- Nodes -->
  <circle cx="32" cy="30" r="3" fill="white" opacity="0.65"/>
  <circle cx="50" cy="22" r="3.5" fill="white" opacity="0.7"/>
  <circle cx="68" cy="30" r="3" fill="white" opacity="0.65"/>
  <circle cx="25" cy="50" r="2.8" fill="white" opacity="0.55"/>
  <circle cx="42" cy="48" r="3.2" fill="white" opacity="0.65"/>
  <circle cx="60" cy="46" r="3" fill="white" opacity="0.6"/>
  <circle cx="76" cy="52" r="2.8" fill="white" opacity="0.55"/>
  <circle cx="35" cy="68" r="2.5" fill="white" opacity="0.5"/>
  <circle cx="52" cy="72" r="3" fill="white" opacity="0.6"/>
  <circle cx="68" cy="66" r="2.8" fill="white" opacity="0.55"/>
</svg>
