<svg xmlns="http://www.w3.org/2000/svg" viewBox="0 0 100 100">
  <defs>
    <linearGradient id="bg" x1="0%" y1="0%" x2="100%" y2="100%">
      <stop offset="0%" style="stop-color:#6366f1"/>
      <stop offset="100%" style="stop-color:#a855f7"/>
    </linearGradient>
  </defs>
  <rect width="100" height="100" rx="20" fill="url(#bg)"/>
  <path d="M50 18 C38 18, 30 25, 28 34 C24 34, 20 38, 20 45 C20 52, 24 56, 28 57 C28 64, 34 70, 42 72 C44 76, 48 78, 52 78 C56 78, 60 76, 62 72 C70 70, 76 64, 76 57 C80 56, 84 52, 84 45 C84 38, 80 34, 76 34 C74 25, 66 18, 54 18 C52 18, 50 18, 50 18Z" fill="white" opacity="0.95"/>
  <path d="M36 38 C40 35, 44 37, 46 41" fill="none" stroke="#6366f1" stroke-width="2" stroke-linecap="round" opacity="0.5"/>
  <path d="M46 41 C48 35, 54 33, 58 37" fill="none" stroke="#6366f1" stroke-width="2" stroke-linecap="round" opacity="0.5"/>
  <path d="M58 37 C62 33, 68 35, 70 41" fill="none" stroke="#6366f1" stroke-width="2" stroke-linecap="round" opacity="0.5"/>
  <path d="M32 50 C36 46, 42 48, 46 52" fill="none" stroke="#6366f1" stroke-width="1.5" stroke-linecap="round" opacity="0.4"/>
  <path d="M46 52 C50 48, 56 46, 62 50" fill="none" stroke="#6366f1" stroke-width="1.5" stroke-linecap="round" opacity="0.4"/>
  <path d="M38 60 C42 56, 48 58, 52 62" fill="none" stroke="#6366f1" stroke-width="1.3" stroke-linecap="round" opacity="0.35"/>
</svg>
